<svg xmlns="http://www.w3.org/2000/svg" viewBox="0 0 128 128" width="128" height="128" role="img" aria-label="Cold Front">
  <defs><linearGradient id="g" x1="0" y1="0" x2="0" y2="1">
    <stop offset="0" stop-color="hsl(142 40% 46%)"/>
    <stop offset="1" stop-color="hsl(142 44% 34%)"/>
  </linearGradient></defs>
  <circle cx="64" cy="64" r="64" fill="url(#g)"/>
  <circle cx="64" cy="64" r="60" fill="none" stroke="rgba(255,255,255,.16)" stroke-width="2"/>
  <g fill="none" stroke="#f6efe6" stroke-width="5" stroke-linecap="round" stroke-linejoin="round">
    <path d="M41.0 64.0 L87.0 64.0 M77.8 64.0 L83.7 67.7 M77.8 64.0 L83.7 60.3 M50.2 64.0 L44.3 60.3 M50.2 64.0 L44.3 67.7 M52.5 44.1 L75.5 83.9 M70.9 76.0 L70.7 82.8 M70.9 76.0 L77.0 79.2 M57.1 52.0 L57.3 45.2 M57.1 52.0 L51.0 48.8 M75.5 44.1 L52.5 83.9 M57.1 76.0 L51.0 79.2 M57.1 76.0 L57.3 82.8 M70.9 52.0 L77.0 48.8 M70.9 52.0 L70.7 45.2"/>
  </g>
</svg>
